<svg width="268" height="67" viewBox="0 0 268 67" fill="none" xmlns="http://www.w3.org/2000/svg">
<path d="M253.091 24.2589C252.156 25.0639 251.352 26.0457 250.674 27.1988C250.537 25.9078 250.206 24.8721 249.641 24.1353C248.846 23.0645 247.58 22.5783 245.972 22.5783C244.825 22.5783 243.714 23.0384 242.645 23.892C241.568 24.7188 240.805 25.752 240.369 26.9867L240.264 27.2838L240.487 27.5067L241.242 28.2613L241.633 28.6519L241.982 28.2243C242.579 27.4946 243.059 26.9869 243.425 26.682L243.105 26.2979L243.425 26.682C243.785 26.3816 244.043 26.2948 244.211 26.2948C244.479 26.2948 244.684 26.3957 244.863 26.6423C245.052 26.9019 245.17 27.2752 245.17 27.8071V64.8827V65.6387L245.866 65.3429L250.243 63.4815L250.547 63.3521V63.0214V37.7174C250.547 34.2965 251.014 31.7201 251.903 29.9423C252.345 29.0572 252.867 28.4257 253.453 28.0155C254.034 27.6087 254.704 27.4016 255.48 27.4016C256.823 27.4016 258.032 27.7743 259.121 28.5213L259.121 28.5214L259.129 28.5268C260.218 29.2425 261.083 30.2583 261.719 31.5938L261.719 31.5938L261.721 31.598C262.356 32.8984 262.677 34.3484 262.677 35.9567C262.677 38.8274 262.231 41.1444 261.368 42.9333L261.366 42.9368C260.535 44.6962 259.53 45.4173 258.398 45.4173C256.866 45.4173 255.769 45.1545 255.045 44.6913L254.56 44.3807L254.321 44.9049L253.013 47.7724L252.813 48.2113L253.244 48.4271C253.988 48.7992 254.62 49.0651 255.131 49.2122C255.679 49.3937 256.232 49.486 256.788 49.486C258.968 49.486 260.887 48.8682 262.524 47.6232C264.154 46.383 265.378 44.6399 266.21 42.4225C267.075 40.1728 267.5 37.5444 267.5 34.5481C267.5 32.3971 267.049 30.4088 266.14 28.5913C265.234 26.7441 263.988 25.2829 262.401 24.2239C260.812 23.1301 259.071 22.5783 257.19 22.5783C255.77 22.5783 254.402 23.1603 253.096 24.2545L253.096 24.2545L253.091 24.2589Z" fill="#E28B2A" stroke="white"/>
<path d="M226.966 47.7092C228.07 46.7842 229.004 45.6989 229.766 44.4561C229.916 45.5918 230.238 46.5742 230.748 47.3896L230.748 47.3897L230.754 47.399C231.563 48.6323 232.806 49.2344 234.392 49.2344C235.534 49.2344 236.644 48.7948 237.714 47.9742L237.714 47.9743L237.722 47.9678C238.797 47.1086 239.559 46.0602 239.994 44.826L240.096 44.5394L239.888 44.3177L239.133 43.5128L238.68 43.0297L238.34 43.5975C237.567 44.8844 236.81 45.367 236.102 45.367C235.809 45.367 235.622 45.2587 235.478 45.0114C235.284 44.68 235.194 44.347 235.194 44.0056V30.7751V30.0225L234.5 30.3142L230.073 32.1755L229.767 32.3043V32.6364V34.9002C229.767 37.4479 229.261 39.7894 228.255 41.9317C227.773 42.9577 227.104 43.7062 226.254 44.2027C225.4 44.7014 224.331 44.9645 223.023 44.9645C222.122 44.9645 221.368 44.7748 220.744 44.4151C220.122 44.0563 219.6 43.5123 219.185 42.7601C218.332 41.1793 217.888 39.1062 217.888 36.51C217.888 34.7272 218.212 33.1206 218.851 31.6825C219.487 30.2518 220.402 29.1363 221.594 28.3203L221.594 28.3204L221.602 28.3153C222.784 27.4755 224.172 27.0494 225.789 27.0494C226.757 27.0494 227.666 27.3345 228.527 27.919L228.527 27.9191L228.537 27.9258C229.431 28.5006 230.118 29.1448 230.611 29.8533L230.866 30.2204L231.259 30.0074L234.881 28.0455L235.295 27.8214L235.097 27.395C234.376 25.845 233.217 24.6888 231.641 23.936C230.13 23.1982 228.512 22.8298 226.795 22.8298C224.247 22.8298 221.903 23.5473 219.776 24.9774L219.776 24.9774L219.772 24.9795C217.687 26.4048 216.039 28.3151 214.83 30.6985C213.62 33.0509 213.015 35.5774 213.015 38.2707C213.015 41.6275 213.751 44.3741 215.274 46.4633L215.274 46.4634L215.279 46.471C216.866 48.5627 219.19 49.5866 222.167 49.5866C223.879 49.5866 225.482 48.9458 226.965 47.71L226.966 47.7092Z" fill="#E28B2A" stroke="white"/>
<path d="M198.029 47.7092C199.134 46.7842 200.068 45.6989 200.83 44.4561C200.98 45.5918 201.302 46.5742 201.812 47.3896L201.812 47.3897L201.818 47.399C202.627 48.6323 203.87 49.2344 205.456 49.2344C206.598 49.2344 207.708 48.7948 208.778 47.9742L208.778 47.9743L208.786 47.9678C209.86 47.1086 210.623 46.0602 211.058 44.826L211.16 44.5394L210.952 44.3177L210.197 43.5128L209.744 43.0297L209.404 43.5975C208.631 44.8844 207.874 45.367 207.166 45.367C206.873 45.367 206.686 45.2587 206.542 45.0114C206.348 44.68 206.258 44.347 206.258 44.0056V30.7751V30.0225L205.564 30.3142L201.137 32.1755L200.831 32.3043V32.6364V34.9002C200.831 37.4479 200.325 39.7894 199.319 41.9317C198.837 42.9577 198.168 43.7062 197.318 44.2027C196.464 44.7014 195.395 44.9645 194.086 44.9645C193.185 44.9645 192.432 44.7748 191.808 44.4151C191.186 44.0563 190.664 43.5123 190.249 42.7601C189.396 41.1793 188.952 39.1062 188.952 36.51C188.952 34.7272 189.276 33.1206 189.915 31.6825C190.551 30.2518 191.466 29.1363 192.658 28.3203L192.658 28.3204L192.666 28.3153C193.847 27.4755 195.236 27.0494 196.853 27.0494C197.821 27.0494 198.73 27.3345 199.591 27.919L199.591 27.9191L199.601 27.9258C200.495 28.5006 201.182 29.1448 201.675 29.8533L201.93 30.2204L202.323 30.0074L205.945 28.0455L206.359 27.8214L206.161 27.395C205.44 25.845 204.281 24.6888 202.705 23.936C201.193 23.1982 199.576 22.8298 197.859 22.8298C195.311 22.8298 192.967 23.5473 190.839 24.9774L190.839 24.9774L190.836 24.9795C188.751 26.4048 187.103 28.3151 185.894 30.6985C184.684 33.0509 184.079 35.5774 184.079 38.2707C184.079 41.6275 184.815 44.3741 186.338 46.4633L186.338 46.4634L186.343 46.471C187.93 48.5627 190.254 49.5866 193.231 49.5866C194.943 49.5866 196.546 48.9458 198.029 47.71L198.029 47.7092Z" fill="#E28B2A" stroke="white"/>
<path d="M174.677 18.1829C173.628 19.0803 172.73 20.1205 171.985 21.3025L171.985 21.3024L171.981 21.3092C171.001 22.9186 170.5 24.5669 170.5 26.2476V47.2253C170.5 48.7478 170.12 50.038 169.38 51.1179L169.38 51.1179L169.374 51.1261C168.724 52.1162 167.603 52.6614 165.868 52.6614C164.449 52.6614 163.243 52.3002 162.23 51.5942C161.171 50.8559 160.292 49.9761 159.59 48.9543L159.283 48.5087L158.863 48.8489L154.637 52.2697L154.109 52.6974L154.675 53.0744C155.92 53.9045 157.284 54.5605 158.765 55.0433C160.219 55.5618 161.648 55.8246 163.051 55.8246C165.966 55.8246 168.426 55.2418 170.402 54.0425C172.391 52.8555 173.854 51.2744 174.772 49.3004C175.711 47.3503 176.178 45.2139 176.178 42.899V23.3298C176.178 22.2551 176.383 21.2689 176.788 20.3651C177.197 19.4527 177.901 18.389 178.921 17.1712L182.182 13.6591L182.962 12.8189H181.815H174.622C170.43 12.8189 166.546 15.0615 162.968 19.3892L162.66 19.761L163.021 20.0815L163.926 20.8864L164.298 21.2165L164.63 20.8472C165.506 19.8736 166.362 19.1998 167.192 18.8L167.192 18.8001L167.199 18.7967C168.053 18.3697 169.095 18.1455 170.343 18.1452C170.344 18.1452 170.345 18.1452 170.346 18.1452L174.677 18.1829Z" fill="#E28B2A" stroke="white"/>
<path d="M150.973 43.6307L150.513 43.2246L150.208 43.7576C149.978 44.1605 149.622 44.5677 149.121 44.9748C148.675 45.3315 148.296 45.4676 147.976 45.4676C147.518 45.4676 147.306 45.3272 147.19 45.1458C147.002 44.8499 146.916 44.5564 146.916 44.2572V2V1.24615L146.222 1.53937L141.694 3.45101L141.389 3.58V3.91163V43.6535C141.389 45.4041 141.751 46.8101 142.561 47.7839C143.386 48.7754 144.602 49.2344 146.115 49.2344C147.257 49.2344 148.367 48.7948 149.437 47.9742C150.501 47.1588 151.337 46.1628 151.942 44.9892L152.12 44.643L151.828 44.3853L150.973 43.6307Z" fill="#E28B2A" stroke="white"/>
<path d="M124.241 47.7092C125.346 46.7842 126.279 45.6989 127.041 44.4561C127.191 45.5918 127.514 46.5742 128.023 47.3896L128.023 47.3897L128.029 47.399C128.839 48.6323 130.081 49.2344 131.667 49.2344C132.809 49.2344 133.919 48.7948 134.989 47.9742L134.99 47.9743L134.998 47.9678C136.072 47.1086 136.834 46.0602 137.27 44.826L137.371 44.5394L137.163 44.3177L136.408 43.5128L135.955 43.0297L135.615 43.5975C134.843 44.8844 134.086 45.367 133.377 45.367C133.084 45.367 132.897 45.2587 132.753 45.0114C132.559 44.68 132.469 44.347 132.469 44.0056V30.7751V30.0225L131.775 30.3142L127.348 32.1755L127.042 32.3043V32.6364V34.9002C127.042 37.4479 126.536 39.7894 125.53 41.9317C125.048 42.9577 124.379 43.7062 123.529 44.2027C122.675 44.7014 121.606 44.9645 120.298 44.9645C119.397 44.9645 118.643 44.7748 118.019 44.4151C117.397 44.0563 116.875 43.5123 116.461 42.7601C115.608 41.1793 115.163 39.1062 115.163 36.51C115.163 34.7272 115.487 33.1206 116.126 31.6825C116.762 30.2518 117.677 29.1363 118.87 28.3203L118.87 28.3204L118.877 28.3153C120.059 27.4755 121.448 27.0494 123.064 27.0494C124.032 27.0494 124.941 27.3345 125.802 27.919L125.802 27.9191L125.812 27.9258C126.707 28.5006 127.393 29.1448 127.886 29.8533L128.141 30.2204L128.534 30.0074L132.157 28.0455L132.57 27.8214L132.372 27.395C131.651 25.845 130.492 24.6888 128.916 23.936C127.405 23.1982 125.787 22.8298 124.071 22.8298C121.522 22.8298 119.178 23.5473 117.051 24.9774L117.051 24.9774L117.047 24.9795C114.962 26.4048 113.315 28.3151 112.105 30.6985C110.895 33.0509 110.29 35.5774 110.29 38.2707C110.29 41.6275 111.026 44.3741 112.549 46.4633L112.549 46.4634L112.555 46.471C114.141 48.5627 116.465 49.5866 119.442 49.5866C121.154 49.5866 122.757 48.9458 124.24 47.71L124.241 47.7092Z" fill="#E28B2A" stroke="white"/>
<path d="M92.1914 27.0494H95.4644V43.6535C95.4644 45.4086 95.8452 46.8183 96.6941 47.7927C97.4083 48.6123 98.4009 49.0646 99.6166 49.1947C99.7044 49.2769 99.8007 49.3158 99.8653 49.3354C99.9969 49.3755 100.138 49.3772 100.25 49.3723C100.485 49.3621 100.804 49.3091 101.19 49.2256C102.082 49.0746 102.985 48.6695 103.896 48.0388L103.899 48.0366C104.888 47.3401 105.708 46.3117 106.372 44.9839L106.528 44.6731L106.291 44.4191L105.586 43.6645L105.224 43.2761L104.858 43.6616C104.251 44.3015 103.726 44.7635 103.282 45.0622C102.828 45.3669 102.509 45.4676 102.303 45.4676C101.913 45.4676 101.649 45.3564 101.458 45.1704C101.254 44.9391 101.143 44.6464 101.143 44.2572V27.0494H106.126H106.444L106.579 26.7617L108.088 23.5421L108.422 22.8298H107.635H101.143V9.94839V9.21869L100.462 9.48211L95.7839 11.2931L95.4644 11.4168V11.7594V22.8298H93.7509H93.4375L93.3009 23.1119L91.7414 26.3315L91.3937 27.0494H92.1914Z" fill="#E28B2A" stroke="white"/>
<path d="M64.4753 47.7878C65.4097 46.9063 66.3554 45.7771 67.3136 44.4064C67.272 44.8574 67.2517 45.3447 67.2517 45.867V45.8761L67.252 45.8853L67.4026 50.0012C67.4018 52.7731 67.0211 55.0298 66.2843 56.7918L66.2842 56.7917L66.2802 56.8018C65.9494 57.6439 65.43 58.2559 64.7223 58.6645C64.0065 59.0777 63.0645 59.3018 61.8659 59.3018C61.1043 59.3018 60.5017 59.1355 60.0305 58.8324C59.5792 58.5206 59.2593 58.1158 59.062 57.6083L58.8078 56.9548L58.2728 57.408L53.9968 61.0301L53.6164 61.3523L53.9375 61.7337C55.1166 63.1339 56.7224 63.8232 58.6966 63.8232C61.4052 63.8232 63.8338 62.8872 65.9652 61.0358C68.1052 59.206 69.775 56.9132 70.9766 54.1667C72.1736 51.4308 72.7793 48.7635 72.7793 46.1688V30.7751V30.029L72.0891 30.3127L67.5616 32.174L67.2517 32.3014V32.6365V34.9002C67.2517 37.42 66.794 39.7683 65.8823 41.9503C65.4447 42.9813 64.8412 43.725 64.0844 44.2147C63.3262 44.7053 62.3776 44.9645 61.2119 44.9645C60.1921 44.9645 59.3373 44.7532 58.6293 44.3507C57.9234 43.9495 57.3358 43.3428 56.8716 42.5083C55.9445 40.7805 55.4739 38.7856 55.4739 36.51C55.4739 35.0768 55.7921 33.5483 56.4427 31.9206C57.1208 30.3076 58.052 28.9622 59.2337 27.8757C60.4178 26.8171 61.7746 26.2948 63.3248 26.2948C64.3595 26.2948 65.2978 26.5969 66.1531 27.2078C67.0099 27.8198 67.6764 28.6658 68.1473 29.7647L68.3632 30.2684L68.8451 30.0074L72.4671 28.0455L72.8963 27.813L72.6742 27.3783C71.8598 25.785 70.6709 24.5252 69.1164 23.6058C67.5693 22.6572 65.9381 22.1758 64.2303 22.1758C61.7003 22.1758 59.3658 22.9867 57.2391 24.5903C55.1547 26.1537 53.5122 28.2335 52.3074 30.8152L52.3074 30.8152L52.3061 30.8179C51.1344 33.368 50.55 36.1058 50.55 39.0254C50.55 42.035 51.3477 44.5669 52.975 46.5835L52.975 46.5835L52.9778 46.5868C54.6335 48.6025 57.0017 49.5866 60.0045 49.5866C61.7412 49.5866 63.2408 48.9847 64.4753 47.7878Z" fill="#E28B2A" stroke="white"/>
<mask id="mask0_2456_3389" style="mask-type:alpha" maskUnits="userSpaceOnUse" x="77" y="22" width="15" height="30">
<rect x="77.5" y="22.5" width="14" height="29" fill="#D9D9D9" stroke="white"/>
</mask>
<g mask="url(#mask0_2456_3389)">
<path d="M83.7148 18.7188L83.9956 18.6167L84.0387 18.3211L85.7491 6.59975L85.8674 5.789L85.0923 6.05455L79.6592 7.91587L79.2463 8.05734L79.3307 8.48558L81.3933 18.9493L81.5062 19.5219L82.0547 19.3225L83.7148 18.7188ZM87.5797 45.0577L87.5725 45.0628L87.5654 45.0682C87.1758 45.3679 86.8791 45.4676 86.6629 45.4676C86.3246 45.4676 86.1055 45.3684 85.949 45.2035C85.7955 44.9725 85.7041 44.6667 85.7041 44.2572V23.531V22.8013L85.0236 23.0648L80.3451 24.8758L80.0256 24.9995V25.3421V43.6535C80.0256 45.528 80.3439 46.9855 81.0959 47.8958L81.0958 47.8959L81.1041 47.9055C81.8872 48.8061 82.9753 49.2345 84.2985 49.2345C85.3145 49.2345 86.3878 48.8965 87.509 48.2663C88.722 47.6037 89.7215 46.4976 90.5246 44.9961L90.7056 44.6579L90.4257 44.3955L89.6208 43.6409L89.2102 43.2559L88.8763 43.7091C88.4273 44.3185 87.9937 44.762 87.5797 45.0577Z" fill="#E28B2A" stroke="white"/>
</g>
<mask id="mask1_2456_3389" style="mask-type:alpha" maskUnits="userSpaceOnUse" x="74" y="1" width="18" height="22">
<rect x="74.5" y="1.5" width="17" height="21" fill="#D9D9D9" stroke="white"/>
</mask>
<g mask="url(#mask1_2456_3389)">
<path d="M81.8675 2.58493L81.6084 2.15734L81.4574 2.24884L81.3974 2.41484L81.8675 2.58493ZM81.8675 2.58493C81.6084 2.15734 81.6086 2.1572 81.6088 2.15706L81.6093 2.15676L81.6104 2.1561L81.613 2.15454L81.6198 2.15056L81.6396 2.13931C81.6554 2.13047 81.6767 2.11901 81.7028 2.10582C81.7548 2.07955 81.8273 2.04583 81.9159 2.01216C82.0901 1.94596 82.3427 1.87372 82.633 1.86894C82.9283 1.86407 83.268 1.92954 83.5917 2.14471C83.9146 2.3594 84.183 2.69743 84.3806 3.17235C84.5653 3.61647 84.8859 4.72262 85.2342 6.11272C85.5862 7.51789 85.976 9.2517 86.2965 10.9755C86.6164 12.6959 86.8701 14.4217 86.9453 15.805C86.9828 16.4947 86.9772 17.1197 86.9062 17.6246C86.8707 17.8773 86.8167 18.1156 86.7351 18.3233C86.6547 18.528 86.5349 18.7349 86.3485 18.887C85.3749 19.6813 83.8405 19.6281 82.4806 19.1557C81.09 18.6726 79.6902 17.6931 78.8896 16.3525C78.6461 15.9447 78.5425 15.4091 78.511 14.8431C78.4789 14.2663 78.5191 13.6015 78.6064 12.8947C78.7812 11.4805 79.1519 9.84249 79.5639 8.29711C79.9767 6.7487 80.4348 5.27897 80.7894 4.19733C80.9667 3.65619 81.1184 3.21142 81.2259 2.90159C81.2797 2.74666 81.3224 2.62542 81.3517 2.5427L81.3854 2.4481L81.3942 2.42358L81.3965 2.41721L81.3971 2.41552L81.3973 2.41506C81.3973 2.41493 81.3974 2.41484 81.8675 2.58493ZM88.9516 -31.388L88.9586 -31.3824L88.9658 -31.3771C89.4909 -30.9851 90.036 -30.4011 90.5968 -29.6058L90.9355 -29.1255L91.3553 -29.5368L92.3499 -30.5112L92.6127 -30.7687L92.4451 -31.0962C91.4625 -33.0157 90.2439 -34.4221 88.7695 -35.2635C87.3951 -36.0708 86.0858 -36.5 84.8513 -36.5C83.2361 -36.5 81.9247 -35.954 80.9859 -34.8258L80.9858 -34.8259L80.978 -34.816C80.0818 -33.6823 79.6892 -31.848 79.6892 -29.4393V-5.79463V-5.45753L80.0017 -5.33112L85.7828 -2.99264L86.4703 -2.71455V-3.45615V-30.2188C86.4703 -30.7797 86.5919 -31.2105 86.8047 -31.5399C87.0263 -31.789 87.3299 -31.9273 87.773 -31.9273C88.0692 -31.9273 88.4579 -31.7849 88.9516 -31.388Z" fill="#F9753C" stroke="white"/>
</g>
<path d="M41.4162 18.7188L41.697 18.6167L41.7401 18.3211L43.4505 6.59975L43.5688 5.789L42.7937 6.05455L37.3607 7.91587L36.9477 8.05734L37.0321 8.48558L39.0947 18.9493L39.2076 19.5219L39.7561 19.3225L41.4162 18.7188ZM45.2811 45.0577L45.2739 45.0628L45.2668 45.0682C44.8772 45.3679 44.5805 45.4676 44.3643 45.4676C44.026 45.4676 43.8069 45.3684 43.6504 45.2035C43.4969 44.9725 43.4055 44.6667 43.4055 44.2572V23.531V22.8013L42.725 23.0648L38.0465 24.8758L37.727 24.9995V25.3421V43.6535C37.727 45.528 38.0453 46.9855 38.7973 47.8958L38.7972 47.8959L38.8055 47.9055C39.5886 48.8061 40.6767 49.2345 42 49.2345C43.0159 49.2345 44.0892 48.8965 45.2104 48.2663C46.4234 47.6037 47.4229 46.4976 48.2261 44.9961L48.407 44.6578L48.1271 44.3955L47.3222 43.6409L46.9116 43.2559L46.5777 43.7091C46.1287 44.3185 45.6951 44.762 45.2811 45.0577Z" fill="#E28B2A" stroke="white"/>
<path d="M10.3981 45.7643V19.5568V18.8417L9.72639 19.0872L5.04791 20.7977L4.71959 20.9177V21.2673V49.1369V49.6684L5.25007 49.636C9.71677 49.3632 14.0762 48.1356 18.3251 45.9603C22.6144 43.7815 26.1131 40.8824 28.8117 37.2616C31.5554 33.5916 32.9352 29.5639 32.9352 25.1911C32.9352 21.2412 31.8511 18.0556 29.6315 15.6943C27.3982 13.2845 24.1796 12.1146 20.0599 12.1146C17.0585 12.1146 13.7886 12.8733 10.2566 14.3676C6.72502 15.8617 3.85051 17.6876 1.64924 19.8545L1.29875 20.1995L1.63793 20.5557L2.64405 21.6121L2.96778 21.952L3.32743 21.6504C5.3651 19.9413 7.64995 18.5766 10.1844 17.5561C12.7449 16.5386 15.3147 16.0324 17.8967 16.0324C19.8943 16.0324 21.492 16.5146 22.728 17.4415L22.728 17.4416L22.7327 17.4451C24.0328 18.3963 24.9805 19.6127 25.5828 21.1025C26.194 22.6143 26.5022 24.2605 26.5022 26.0463C26.5022 29.1862 25.7835 32.1071 24.3469 34.817L24.3447 34.8211C22.938 37.5365 20.975 39.8611 18.4493 41.7966C16.0856 43.5767 13.4034 44.8999 10.3981 45.7643Z" fill="#E28B2A" stroke="white"/>
</svg>
